# xmcd
#
# Track frame offsets:
#	150
#	11834
#	24901
#	48072
#	60174
#	73961
#	85881
#	96588
#	115925
#	129350
#	144863
#	156549
#	173004
#	185735
#	198283
#	215199
#	230538
#	246625
#
# Disc length: 3486
#
# Revision: 2
# Processed by: cddbd v1.5.1PL0 Copyright (c) Steve Scherf et al.
# Submitted via: EasyCDDAExtractor 6.5.0.1
# Normalized: r1:DSETVAR1
#
DISCID=040d9c12
DTITLE=Various Artist - Country Love
DYEAR=2004
DGENRE=Country
TTITLE0=Freddy Fender - Before The Next Teardrop Falls
TTITLE1=Charie Rich - The Most Beautiful Girl In The World
TTITLE2=John Denver - Sunshine On My Shoulders
TTITLE3=Skeeter Davis - The End Of The World
TTITLE4=Kenny Rogers - I Will Always Love You
TTITLE5=Wilma Burgess - Misty Blue
TTITLE6=Glen Campbell - Time In A Bottle
TTITLE7=Juice Newton - Angel Of The Morning
TTITLE8=Lynn Anderson - Top Of The World
TTITLE9=Frankie Laine - Green Green Grass Of Home
TTITLE10=Sammi Smith - Help Me Make It Through The Night
TTITLE11=Lobo - Don't Expect Me To Be Your Friend
TTITLE12=Glen Campbell - By The Time I Get To Phoenix
TTITLE13=Charie Rich - Behind Closed Doors
TTITLE14=Ferlin Husky - For The Good Times
TTITLE15=Exile - I Don't Want To Be A Memory
TTITLE16=Johnny Lee - Lookin' For Love
TTITLE17=Kenny Rogers - Crazy
EXTD=
EXTT0=
EXTT1=
EXTT2=
EXTT3=
EXTT4=
EXTT5=
EXTT6=
EXTT7=
EXTT8=
EXTT9=
EXTT10=
EXTT11=
EXTT12=
EXTT13=
EXTT14=
EXTT15=
EXTT16=
EXTT17=
PLAYORDER=
